<?xml version="1.0" standalone="no"?>
<!DOCTYPE svg PUBLIC "-//W3C//DTD SVG 20010904//EN"
 "http://www.w3.org/TR/2001/REC-SVG-20010904/DTD/svg10.dtd">
<svg version="1.0" xmlns="http://www.w3.org/2000/svg"
 width="1020.000000pt" height="1020.000000pt" viewBox="0 0 1020.000000 1020.000000"
 preserveAspectRatio="xMidYMid meet">
<metadata>
Created by potrace 1.14, written by Peter Selinger 2001-2017
</metadata>
<g transform="translate(0.000000,1020.000000) scale(0.100000,-0.100000)"
fill="#000000" stroke="none">
<path d="M0 5095 l0 -4685 5100 0 5100 0 0 4685 0 4685 -5100 0 -5100 0 0
-4685z m4625 1398 c4 -10 28 -81 55 -158 162 -471 621 -1744 728 -2021 116
-299 183 -405 340 -537 170 -143 432 -224 638 -197 144 20 271 69 375 147 305
229 477 632 456 1068 -14 292 -105 572 -245 755 -62 82 -172 184 -245 228
-160 96 -402 127 -592 76 -294 -79 -535 -366 -609 -728 -23 -107 -36 -238 -37
-361 l0 -110 -21 55 c-11 30 -20 61 -21 68 0 6 -4 12 -9 12 -4 0 -8 8 -8 18 0
10 -3 22 -7 26 -5 4 -8 11 -9 14 0 4 -6 20 -12 35 -7 16 -12 34 -12 40 0 7 -8
26 -18 42 -11 17 -29 59 -41 95 -13 36 -33 87 -47 113 -13 27 -24 53 -24 58 0
4 -11 32 -24 61 -41 88 -59 133 -58 141 1 4 -3 7 -9 7 -5 0 -7 5 -4 10 3 6 2
10 -4 10 -6 0 -8 6 -5 14 3 8 1 17 -4 20 -18 11 -56 100 -56 131 0 37 72 164
157 280 92 123 257 282 357 342 169 101 324 166 465 194 92 18 395 19 490 1
289 -55 555 -195 762 -401 242 -240 423 -631 494 -1066 20 -117 17 -407 -5
-530 -68 -390 -200 -686 -416 -933 -216 -249 -524 -429 -850 -499 -118 -25
-390 -25 -510 0 -478 101 -842 380 -1030 791 l-45 96 -982 2 c-541 0 -989 1
-995 2 -8 1 -73 -179 -172 -476 l-158 -478 -244 0 c-134 0 -244 2 -244 4 0 31
1037 3131 1185 3544 3 9 139 12 634 12 590 0 629 -1 636 -17z"/>
<path d="M3729 5948 c-20 -17 -60 -128 -300 -843 l-199 -590 113 -6 c61 -4
411 -7 776 -8 l663 -1 -5 22 c-7 30 -169 493 -237 673 -28 77 -104 278 -167
448 l-116 307 -197 0 c-108 0 -224 3 -256 6 -42 4 -64 2 -75 -8z"/>
</g>
</svg>
